<?xml version="1.0" encoding="UTF-8"?>
<svg xmlns="http://www.w3.org/2000/svg" version="1.1" viewBox="0 0 918.35 437.1">
  <defs>
    <style>
      .cls-1 {
        fill: #262626;
      }

      .cls-2 {
        fill: #faa933;
      }

      .cls-3 {
        fill: #666664;
      }

      .cls-4 {
        fill: #898989;
      }

      .cls-5 {
        fill: #545554;
      }

      .cls-6 {
        fill: #7d7d7d;
      }

      .cls-7 {
        fill: #fff;
      }

      .cls-8 {
        opacity: .72;
      }

      .cls-9 {
        opacity: .4;
      }

      .cls-10 {
        opacity: .21;
      }

      .cls-11 {
        fill: #4a494a;
      }

      .cls-12 {
        fill: #787878;
      }
    </style>
  </defs>
  <!-- Generator: Adobe Illustrator 28.7.3, SVG Export Plug-In . SVG Version: 1.2.0 Build 164)  -->
  <g>
    <g id="Layer_1">
      <path class="cls-3" d="M283.92,194.46c-5.04-13.03-3.07-27.95,1.12-37.73,4.19-9.78,7.83-13.69,15.37-50.31,9.5-55.9-28.23-81.61-28.23-81.61-13.21-10.15-35.5-18.73-77.42-20.37-45.92-2.26-101.23,4.75-124.66,14.5C-15.99,58.9,31.81,156.44,31.81,156.44c0,0,4.79,6.19,7.36,17.98,1.04,4.78,1.24,9.74,1.1,13.93-2.55,3.28-4.97,6.66-7.25,10.14-15.56,23.79-24.61,52.23-24.61,82.79,0,83.63,67.8,151.43,151.43,151.43s151.43-67.8,151.43-151.43c0-32.3-10.12-62.24-27.35-86.82ZM92.61,145.55s0,0,0,0c-18.86-1.95-21.95-28.52-21.95-28.52l-3.35-23.48s.84-20.68,21.52-27.95c16.21-7.55,103.97-17.89,142.83-6.15,24.04,10.06,20.4,29.07,17.89,48.07-4.76,30.18-21.65,34.26-31.04,34.1-18.04-7.59-37.86-11.78-58.66-11.78-24.15,0-46.97,5.65-67.23,15.7Z"/>
      <path class="cls-5" d="M24.65,64.2s9.86,50.68,42.66,29.36c3.35,23.48,3.9,49.63,25.3,52-28.68,12.94-52.34,42.8-52.34,42.8,0,0,.52-18.24-8.46-31.91-8.98-13.67-20.41-62.48-7.16-92.24Z"/>
      <path class="cls-5" d="M276.88,188.35s-10.21-24.77-58.38-46.72c14.78-3.93,23.58.05,30.8-32.65,7.22-32.7-5.33-44.81-14.04-47.85-13.61-8.18-81.71-15.12-138.39,1.88,0,0,9.2-29.38-47.68,8.84-3.11-22.74,17.62-39.32,35.87-46.71,33.96-11.74,140.53-16.28,169.45,3.01,32.55,19.34,50.31,55.76,18.87,125.36-6.71,10.06,3.5,34.83,3.5,34.83Z"/>
      <g class="cls-8">
        <path class="cls-2" d="M22.05,127.34s15.76-22.22,48.51-13.02c2.38,15.91,6.26,20.49,6.26,20.49,0,0-30.83-6.87-47.74,15.28-4.2-11.56-7.02-22.75-7.02-22.75Z"/>
      </g>
      <g class="cls-8">
        <path class="cls-2" d="M242.42,128.37s4.11-4.8,6.88-19.39c3.18-5.75,36.94-7.31,49.1,10.16-2.85,13.88-6.61,23.25-6.61,23.25,0,0-19.88-19.96-49.36-14.03Z"/>
      </g>
      <path class="cls-6" d="M68.94,105.04s-29.88,13.59-24.21-18.98c5.67-32.57,37.04-40.25,43.75-38.57,6.71,1.68,11.18,9.37,8.39,15.52-18.33,5.07-20.62,10.03-24.96,16.25-6.75,10.67-2.96,25.78-2.96,25.78Z"/>
      <path class="cls-4" d="M206.1,197.85s66.12,23.59,83.47,5.71c26.83,38.57,45.94,149.39-55.24,209.45-41.94-3.29-35.7-41.88-35.7-41.88l7.47-173.28Z"/>
      <path class="cls-12" d="M103.13,198.72c-5.59-11.75-12.86-38.29,18.54-62.73,62.1-23.91,138.42,15.74,168.14,67.56s-68.46,5.53-68.46,5.53c0,0-56.81-45.29-118.22-10.36Z"/>
      <circle class="cls-11" cx="159.51" cy="282.42" r="99.02"/>
      <g class="cls-10">
        <path d="M39.29,195.07s28.74-16.2,40.08,23.2c21.96,154,119.5,152.85,119.5,152.85,0,0-10.5,32.86,35.7,41.88-32.18,13.64-85.86,41.54-163.22-8.82C-5.99,353.83-5.43,229.73,39.29,195.07Z"/>
      </g>
      <g class="cls-9">
        <path class="cls-1" d="M118.65,372.52s141.35,22.2,132.29-128.21c30.65,75.64-38.44,164.54-132.29,128.21Z"/>
      </g>
      <g>
        <path class="cls-7" d="M410.88,157.35v10.79h-18.44v50.21h-12.74v-50.21h-18.44v-10.79h49.62Z"/>
        <path class="cls-7" d="M430.76,157.35v23.11h23.79v-23.11h12.74v61h-12.74v-27.36h-23.79v27.36h-12.74v-61h12.74Z"/>
        <path class="cls-7" d="M524.64,157.35v10.79h-32.37v12.83h29.74v10.79h-29.74v15.8h33.81v10.79h-46.3v-61h44.86Z"/>
        <path class="cls-7" d="M380.21,259.31v24.81l23.28-24.81h16.48l-24.89,24.98,26.34,36.02h-16.4l-18.86-26.76-5.95,6.12v20.65h-12.74v-61h12.74Z"/>
        <path class="cls-7" d="M472.73,259.31v10.79h-32.37v12.83h29.74v10.79h-29.74v15.8h33.81v10.79h-46.3v-61h44.86Z"/>
        <path class="cls-7" d="M528.89,259.31v10.79h-18.44v50.21h-12.74v-50.21h-18.44v-10.79h49.62Z"/>
        <path class="cls-7" d="M584.2,259.31v10.79h-18.44v50.21h-12.74v-50.21h-18.44v-10.79h49.62Z"/>
        <path class="cls-7" d="M604.51,259.31v49.96h30.33v11.04h-43.08v-61h12.74Z"/>
        <path class="cls-7" d="M688.53,259.31v10.79h-32.37v12.83h29.74v10.79h-29.74v15.8h33.81v10.79h-46.3v-61h44.86Z"/>
        <path class="cls-7" d="M730.42,259.31c11.72,0,18.35,6.97,18.35,15.72,0,5.18-1.61,9.69-7.48,12.4,5.78,2.04,9.43,6.88,9.43,14.78,0,4.5-1.61,8.84-5.18,12.49-3.31,3.4-7.48,5.61-18.27,5.61h-26.93v-61h30.08ZM727.7,283.18c4.5,0,8.84-1.53,8.84-6.8s-4.25-6.54-9.26-6.54h-14.7v13.34h15.12ZM728.3,309.78c5.78,0,9.69-2.46,9.69-8.92,0-4.5-3.4-7.39-9.26-7.39h-16.14v16.31h15.72Z"/>
        <path class="cls-7" d="M803.15,259.31v10.79h-32.37v12.83h29.74v10.79h-29.74v15.8h33.81v10.79h-46.3v-61h44.86Z"/>
        <path class="cls-7" d="M827.7,259.31v49.96h30.33v11.04h-43.08v-61h12.74Z"/>
        <path class="cls-7" d="M879.62,259.31v49.96h30.33v11.04h-43.08v-61h12.74Z"/>
        <path class="cls-7" d="M375.02,361.27c3.99,16.82,8.75,37.89,9.69,44.6h.17c2.12-12.06,6.12-32.62,8.5-44.6h13.51l6.12,28.89c.93,4.42,1.87,9.69,2.97,15.72h.17l1.53-8.16c.59-3.31,3.48-15.46,8.41-36.45h12.91l-17.16,61h-12.23c-4.08-18.95-7.31-34.75-9.43-47.58h-.17c-1.27,8.07-2.97,16.82-5.01,26.42l-4.42,21.16h-11.89l-17.25-61h13.59Z"/>
        <path class="cls-7" d="M458.46,361.27v61h-12.74v-61h12.74Z"/>
        <path class="cls-7" d="M484.03,361.27v24.81l23.28-24.81h16.48l-24.89,24.98,26.34,36.02h-16.4l-18.86-26.76-5.95,6.12v20.65h-12.74v-61h12.74Z"/>
        <path class="cls-7" d="M543.42,361.27v61h-12.74v-61h12.74Z"/>
      </g>
    </g>
  </g>
</svg>