<?xml version="1.0" encoding="UTF-8" standalone="no"?>
<svg
   version="1.1"
   viewBox="0 0 302.85999 429.07598"
   id="svg28"
   sodipodi:docname="tkw.svg"
   width="302.85999"
   height="429.07599"
   inkscape:version="1.4.3 (0d15f75, 2025-12-25)"
   xmlns:inkscape="http://www.inkscape.org/namespaces/inkscape"
   xmlns:sodipodi="http://sodipodi.sourceforge.net/DTD/sodipodi-0.dtd"
   xmlns="http://www.w3.org/2000/svg"
   xmlns:svg="http://www.w3.org/2000/svg">
  <sodipodi:namedview
     id="namedview28"
     pagecolor="#ffffff"
     bordercolor="#000000"
     borderopacity="0.25"
     inkscape:showpageshadow="2"
     inkscape:pageopacity="0.0"
     inkscape:pagecheckerboard="0"
     inkscape:deskcolor="#d1d1d1"
     inkscape:zoom="1.31"
     inkscape:cx="123.66412"
     inkscape:cy="107.25191"
     inkscape:window-width="1920"
     inkscape:window-height="1111"
     inkscape:window-x="-9"
     inkscape:window-y="-9"
     inkscape:window-maximized="1"
     inkscape:current-layer="svg28"
     showguides="true">
    <sodipodi:guide
       position="279.69546,706.49197"
       orientation="0,-1"
       id="guide38"
       inkscape:locked="false" />
  </sodipodi:namedview>
  <defs
     id="defs1">
    <style
       id="style1">
      .cls-1 {
        fill: #262626;
      }

      .cls-2 {
        fill: #faa933;
      }

      .cls-3 {
        fill: #666664;
      }

      .cls-4 {
        fill: #898989;
      }

      .cls-5 {
        fill: #545554;
      }

      .cls-6 {
        fill: #7d7d7d;
      }

      .cls-7 {
        opacity: .72;
      }

      .cls-8 {
        opacity: .4;
      }

      .cls-9 {
        opacity: .21;
      }

      .cls-10 {
        fill: #4a494a;
      }

      .cls-11 {
        fill: #787878;
      }
    </style>
  </defs>
  <!-- Generator: Adobe Illustrator 28.7.3, SVG Export Plug-In . SVG Version: 1.2.0 Build 164)  -->
  <g
     id="g28"
     transform="translate(-8.41,-4.0141013)">
    <g
       id="Layer_1">
      <path
         class="cls-3"
         d="m 283.92,194.46 c -5.04,-13.03 -3.07,-27.95 1.12,-37.73 4.19,-9.78 7.83,-13.69 15.37,-50.31 9.5,-55.9 -28.23,-81.61 -28.23,-81.61 C 258.97,14.66 236.68,6.08 194.76,4.44 148.84,2.18 93.53,9.19 70.1,18.94 -15.99,58.9 31.81,156.44 31.81,156.44 c 0,0 4.79,6.19 7.36,17.98 1.04,4.78 1.24,9.74 1.1,13.93 -2.55,3.28 -4.97,6.66 -7.25,10.14 -15.56,23.79 -24.61,52.23 -24.61,82.79 0,83.63 67.8,151.43 151.43,151.43 83.63,0 151.43,-67.8 151.43,-151.43 0,-32.3 -10.12,-62.24 -27.35,-86.82 z M 92.61,145.55 c 0,0 0,0 0,0 C 73.75,143.6 70.66,117.03 70.66,117.03 L 67.31,93.55 c 0,0 0.84,-20.68 21.52,-27.95 16.21,-7.55 103.97,-17.89 142.83,-6.15 24.04,10.06 20.4,29.07 17.89,48.07 -4.76,30.18 -21.65,34.26 -31.04,34.1 -18.04,-7.59 -37.86,-11.78 -58.66,-11.78 -24.15,0 -46.97,5.65 -67.23,15.7 z"
         id="path1" />
      <path
         class="cls-5"
         d="m 24.65,64.2 c 0,0 9.86,50.68 42.66,29.36 3.35,23.48 3.9,49.63 25.3,52 -28.68,12.94 -52.34,42.8 -52.34,42.8 0,0 0.52,-18.24 -8.46,-31.91 C 22.83,142.78 11.4,93.97 24.65,64.21 Z"
         id="path2" />
      <path
         class="cls-5"
         d="m 276.88,188.35 c 0,0 -10.21,-24.77 -58.38,-46.72 14.78,-3.93 23.58,0.05 30.8,-32.65 7.22,-32.7 -5.33,-44.81 -14.04,-47.85 -13.61,-8.18 -81.71,-15.12 -138.39,1.88 0,0 9.2,-29.38 -47.68,8.84 C 46.08,49.11 66.81,32.53 85.06,25.14 119.02,13.4 225.59,8.86 254.51,28.15 c 32.55,19.34 50.31,55.76 18.87,125.36 -6.71,10.06 3.5,34.83 3.5,34.83 z"
         id="path3" />
      <g
         class="cls-7"
         id="g4">
        <path
           class="cls-2"
           d="m 22.05,127.34 c 0,0 15.76,-22.22 48.51,-13.02 2.38,15.91 6.26,20.49 6.26,20.49 0,0 -30.83,-6.87 -47.74,15.28 -4.2,-11.56 -7.02,-22.75 -7.02,-22.75 z"
           id="path4" />
      </g>
      <g
         class="cls-7"
         id="g5">
        <path
           class="cls-2"
           d="m 242.42,128.37 c 0,0 4.11,-4.8 6.88,-19.39 3.18,-5.75 36.94,-7.31 49.1,10.16 -2.85,13.88 -6.61,23.25 -6.61,23.25 0,0 -19.88,-19.96 -49.36,-14.03 z"
           id="path5" />
      </g>
      <path
         class="cls-6"
         d="m 68.94,105.04 c 0,0 -29.88,13.59 -24.21,-18.98 5.67,-32.57 37.04,-40.25 43.75,-38.57 6.71,1.68 11.18,9.37 8.39,15.52 -18.33,5.07 -20.62,10.03 -24.96,16.25 -6.75,10.67 -2.96,25.78 -2.96,25.78 z"
         id="path6" />
      <path
         class="cls-4"
         d="m 206.1,197.85 c 0,0 66.12,23.59 83.47,5.71 26.83,38.57 45.94,149.39 -55.24,209.45 -41.94,-3.29 -35.7,-41.88 -35.7,-41.88 z"
         id="path7" />
      <path
         class="cls-11"
         d="m 103.13,198.72 c -5.59,-11.75 -12.86,-38.29 18.54,-62.73 62.1,-23.91 138.42,15.74 168.14,67.56 29.72,51.82 -68.46,5.53 -68.46,5.53 0,0 -56.81,-45.29 -118.22,-10.36 z"
         id="path8" />
      <circle
         class="cls-10"
         cx="159.50999"
         cy="282.42001"
         r="99.019997"
         id="circle8" />
      <g
         class="cls-9"
         id="g9">
        <path
           d="m 39.29,195.07 c 0,0 28.74,-16.2 40.08,23.2 21.96,154 119.5,152.85 119.5,152.85 0,0 -10.5,32.86 35.7,41.88 -32.18,13.64 -85.86,41.54 -163.22,-8.82 C -5.99,353.83 -5.43,229.73 39.29,195.07 Z"
           id="path9" />
      </g>
      <g
         class="cls-8"
         id="g10">
        <path
           class="cls-1"
           d="m 118.65,372.52 c 0,0 141.35,22.2 132.29,-128.21 30.65,75.64 -38.44,164.54 -132.29,128.21 z"
           id="path10" />
      </g>
    </g>
  </g>
</svg>
