<?xml version="1.0" encoding="UTF-8" standalone="no"?>
<svg
   version="1.1"
   viewBox="0 0 918.35 437.1"
   id="svg28"
   sodipodi:docname="tkw.svg"
   inkscape:version="1.4.3 (0d15f75, 2025-12-25)"
   xmlns:inkscape="http://www.inkscape.org/namespaces/inkscape"
   xmlns:sodipodi="http://sodipodi.sourceforge.net/DTD/sodipodi-0.dtd"
   xmlns="http://www.w3.org/2000/svg"
   xmlns:svg="http://www.w3.org/2000/svg">
  <sodipodi:namedview
     id="namedview28"
     pagecolor="#ffffff"
     bordercolor="#000000"
     borderopacity="0.25"
     inkscape:showpageshadow="2"
     inkscape:pageopacity="0.0"
     inkscape:pagecheckerboard="0"
     inkscape:deskcolor="#d1d1d1"
     inkscape:zoom="1.9469229"
     inkscape:cx="82.694596"
     inkscape:cy="227.28173"
     inkscape:window-width="1920"
     inkscape:window-height="1111"
     inkscape:window-x="-9"
     inkscape:window-y="-9"
     inkscape:window-maximized="1"
     inkscape:current-layer="Layer_1" />
  <defs
     id="defs1">
    <style
       id="style1">
      .cls-1 {
        fill: #262626;
      }

      .cls-2 {
        fill: #faa933;
      }

      .cls-3 {
        fill: #666664;
      }

      .cls-4 {
        fill: #898989;
      }

      .cls-5 {
        fill: #545554;
      }

      .cls-6 {
        fill: #7d7d7d;
      }

      .cls-7 {
        opacity: .72;
      }

      .cls-8 {
        opacity: .4;
      }

      .cls-9 {
        opacity: .21;
      }

      .cls-10 {
        fill: #4a494a;
      }

      .cls-11 {
        fill: #787878;
      }
    </style>
  </defs>
  <!-- Generator: Adobe Illustrator 28.7.3, SVG Export Plug-In . SVG Version: 1.2.0 Build 164)  -->
  <g
     id="g28">
    <g
       id="Layer_1">
      <path
         class="cls-3"
         d="M283.92,194.46c-5.04-13.03-3.07-27.95,1.12-37.73,4.19-9.78,7.83-13.69,15.37-50.31,9.5-55.9-28.23-81.61-28.23-81.61-13.21-10.15-35.5-18.73-77.42-20.37-45.92-2.26-101.23,4.75-124.66,14.5C-15.99,58.9,31.81,156.44,31.81,156.44c0,0,4.79,6.19,7.36,17.98,1.04,4.78,1.24,9.74,1.1,13.93-2.55,3.28-4.97,6.66-7.25,10.14-15.56,23.79-24.61,52.23-24.61,82.79,0,83.63,67.8,151.43,151.43,151.43s151.43-67.8,151.43-151.43c0-32.3-10.12-62.24-27.35-86.82ZM92.61,145.55s0,0,0,0c-18.86-1.95-21.95-28.52-21.95-28.52l-3.35-23.48s.84-20.68,21.52-27.95c16.21-7.55,103.97-17.89,142.83-6.15,24.04,10.06,20.4,29.07,17.89,48.07-4.76,30.18-21.65,34.26-31.04,34.1-18.04-7.59-37.86-11.78-58.66-11.78-24.15,0-46.97,5.65-67.23,15.7Z"
         id="path1" />
      <path
         class="cls-5"
         d="M24.65,64.2s9.86,50.68,42.66,29.36c3.35,23.48,3.9,49.63,25.3,52-28.68,12.94-52.34,42.8-52.34,42.8,0,0,.52-18.24-8.46-31.91-8.98-13.67-20.41-62.48-7.16-92.24Z"
         id="path2" />
      <path
         class="cls-5"
         d="M276.88,188.35s-10.21-24.77-58.38-46.72c14.78-3.93,23.58.05,30.8-32.65,7.22-32.7-5.33-44.81-14.04-47.85-13.61-8.18-81.71-15.12-138.39,1.88,0,0,9.2-29.38-47.68,8.84-3.11-22.74,17.62-39.32,35.87-46.71,33.96-11.74,140.53-16.28,169.45,3.01,32.55,19.34,50.31,55.76,18.87,125.36-6.71,10.06,3.5,34.83,3.5,34.83Z"
         id="path3" />
      <g
         class="cls-7"
         id="g4">
        <path
           class="cls-2"
           d="M22.05,127.34s15.76-22.22,48.51-13.02c2.38,15.91,6.26,20.49,6.26,20.49,0,0-30.83-6.87-47.74,15.28-4.2-11.56-7.02-22.75-7.02-22.75Z"
           id="path4" />
      </g>
      <g
         class="cls-7"
         id="g5">
        <path
           class="cls-2"
           d="M242.42,128.37s4.11-4.8,6.88-19.39c3.18-5.75,36.94-7.31,49.1,10.16-2.85,13.88-6.61,23.25-6.61,23.25,0,0-19.88-19.96-49.36-14.03Z"
           id="path5" />
      </g>
      <path
         class="cls-6"
         d="M68.94,105.04s-29.88,13.59-24.21-18.98c5.67-32.57,37.04-40.25,43.75-38.57,6.71,1.68,11.18,9.37,8.39,15.52-18.33,5.07-20.62,10.03-24.96,16.25-6.75,10.67-2.96,25.78-2.96,25.78Z"
         id="path6" />
      <path
         class="cls-4"
         d="M206.1,197.85s66.12,23.59,83.47,5.71c26.83,38.57,45.94,149.39-55.24,209.45-41.94-3.29-35.7-41.88-35.7-41.88l7.47-173.28Z"
         id="path7" />
      <path
         class="cls-11"
         d="M103.13,198.72c-5.59-11.75-12.86-38.29,18.54-62.73,62.1-23.91,138.42,15.74,168.14,67.56s-68.46,5.53-68.46,5.53c0,0-56.81-45.29-118.22-10.36Z"
         id="path8" />
      <circle
         class="cls-10"
         cx="159.51"
         cy="282.42"
         r="99.02"
         id="circle8" />
      <g
         class="cls-9"
         id="g9">
        <path
           d="M39.29,195.07s28.74-16.2,40.08,23.2c21.96,154,119.5,152.85,119.5,152.85,0,0-10.5,32.86,35.7,41.88-32.18,13.64-85.86,41.54-163.22-8.82C-5.99,353.83-5.43,229.73,39.29,195.07Z"
           id="path9" />
      </g>
      <g
         class="cls-8"
         id="g10">
        <path
           class="cls-1"
           d="M118.65,372.52s141.35,22.2,132.29-128.21c30.65,75.64-38.44,164.54-132.29,128.21Z"
           id="path10" />
      </g>
    </g>
  </g>
</svg>
